HIERARCHY
ROOT Hips
{
	OFFSET 0 0 0
	CHANNELS 6 Xposition Yposition Zposition Xrotation Yrotation Zrotation
	JOINT RightHandThumb1
	{
		OFFSET -1.78 -1.1 1.54
		CHANNELS 3 Xrotation Yrotation Zrotation
		JOINT RightHandThumb2
		{
			OFFSET -3.15004 0 0
			CHANNELS 3 Xrotation Yrotation Zrotation
			JOINT RightHandThumb3
			{
				OFFSET -3.52369 0 0
				CHANNELS 3 Xrotation Yrotation Zrotation
				JOINT RightHandThumb4
				{
					OFFSET -2.58404 0 0
					CHANNELS 3 Xrotation Yrotation Zrotation
					End Site
					{
						OFFSET -0 0 0
					}
				}
			}
		}
	}
	JOINT RightHandIndex1
	{
		OFFSET -7.4073 0.785551 3.77204
		CHANNELS 3 Xrotation Yrotation Zrotation
		JOINT RightHandIndex2
		{
			OFFSET -4.08729 0 0
			CHANNELS 3 Xrotation Yrotation Zrotation
			JOINT RightHandIndex3
			{
				OFFSET -1.89986 0 0
				CHANNELS 3 Xrotation Yrotation Zrotation
				JOINT RightHandIndex4
				{
					OFFSET -1.78024 0 0
					CHANNELS 3 Xrotation Yrotation Zrotation
					End Site
					{
						OFFSET -0 0 0
					}
				}
			}
		}
	}
	JOINT RightHandMiddle1
	{
		OFFSET -8.35792 1.13445 0.717983
		CHANNELS 3 Xrotation Yrotation Zrotation
		JOINT RightHandMiddle2
		{
			OFFSET -4.6 0 0
			CHANNELS 3 Xrotation Yrotation Zrotation
			JOINT RightHandMiddle3
			{
				OFFSET -2.13026 0 0
				CHANNELS 3 Xrotation Yrotation Zrotation
				JOINT RightHandMiddle4
				{
					OFFSET -1.56219 0 0
					CHANNELS 3 Xrotation Yrotation Zrotation
					End Site
					{
						OFFSET -0 0 0
					}
				}
			}
		}
	}
	JOINT RightHandRing1
	{
		OFFSET -7.73062 0.64105 -2.07729
		CHANNELS 3 Xrotation Yrotation Zrotation
		JOINT RightHandRing2
		{
			OFFSET -4.33866 0 0
			CHANNELS 3 Xrotation Yrotation Zrotation
			JOINT RightHandRing3
			{
				OFFSET -2.22865 0 0
				CHANNELS 3 Xrotation Yrotation Zrotation
				JOINT RightHandRing4
				{
					OFFSET -1.63434 0 0
					CHANNELS 3 Xrotation Yrotation Zrotation
					End Site
					{
						OFFSET -0 0 0
					}
				}
			}
		}
	}
	JOINT RightHandPinky1
	{
		OFFSET -7.64414 -0.346801 -3.91753
		CHANNELS 3 Xrotation Yrotation Zrotation
		JOINT RightHandPinky2
		{
			OFFSET -2.756 0 0
			CHANNELS 3 Xrotation Yrotation Zrotation
			JOINT RightHandPinky3
			{
				OFFSET -2.1983 0 0
				CHANNELS 3 Xrotation Yrotation Zrotation
				JOINT RightHandPinky4
				{
					OFFSET -1.30207 0 0
					CHANNELS 3 Xrotation Yrotation Zrotation
					End Site
					{
						OFFSET -0 0 0
					}
				}
			}
		}
	}
}
MOTION
Frames: 14
Frame Time: 0.00833333
0 0.000000 0 0 0 0 0 0 0 0 0 0 0 0 0 0 0 0 0 0 0 0 0 0 0 0 0 0 0 0 0 0 0 0 0 0 0 0 0 0 0 0 0 0 0 0 0 0 0 0 0 0 0 0 0 0 0 0 0 0 0 0 0 0 0 0
-12.24850311 24.82765198 18.85378876 -107.36938579 83.51142205 133.14320519 -24.07209164 29.33630286 27.52702616 0.00000057 -43.20521758 0.00000144 0.00000005 -14.722871 0.0000004 0 -0 -0 -8.34804328 9.40965662 -3.68427803 -0 0 -0.72736694 -0 0 -14.07079206 -0 0 0 -6.17217413 9.17413816 36.60573696 -0 0 84.16001047 -0 0 39.25918735 -0 0 0 -3.18666555 10.34182948 42.61320277 -0 0 79.88752627 -0 0 30.95035579 -0 0 0 1.36363343 -0.62556057 49.83709279 -0 0 32.68339773 -0 0 12.80439737 -0 0 0
-12.2517067 24.83379822 18.85281525 -107.05560587 83.49102251 132.93835367 -23.97947493 29.30167154 27.46430182 0.00000057 -43.07225762 0.00000144 0.00000005 -14.73676913 0.0000004 0 -0 -0 -8.31594397 9.42287668 -3.81915203 -0 0 -0.71755641 -0 0 -14.08829314 -0 0 0 -6.11795552 9.18325052 36.46093986 -0 0 84.15411574 -0 0 39.25384902 -0 0 0 -3.12973325 10.33960397 42.48167496 -0 0 79.86673547 -0 0 30.9428293 -0 0 0 1.39151103 -0.64079637 49.73990897 -0 0 32.66191622 -0 0 12.78291373 -0 0 0
-12.25920486 24.83800964 18.85303497 -106.94423999 83.45596529 132.90671621 -23.8855988 29.26755912 27.39147005 0.00000056 -42.98237661 0.00000143 0.00000005 -14.7523955 0.0000004 -0 -0 -0 -8.27599997 9.40582105 -3.9256151 -0 0 -0.70942412 -0 0 -14.10682439 -0 0 0 -6.0601024 9.16799923 36.33567237 -0 0 84.14503377 -0 0 39.25036548 -0 0 0 -3.06881398 10.31307036 42.36817295 -0 0 79.84595429 -0 0 30.93226532 -0 0 0 1.42731988 -0.67508503 49.66198504 -0 0 32.63980333 -0 0 12.76080216 -0 0 0
-12.26430969 24.84612732 18.85340118 -106.98876649 83.44758723 132.99797069 -23.80898867 29.22562068 27.32440668 0.00000056 -42.89078739 0.00000143 0.00000005 -14.76924017 0.0000004 -0 -0 -0 -8.26306278 9.38463793 -4.00085722 -0 0 -0.70241544 -0 0 -14.12615029 -0 0 0 -6.0360556 9.15766352 36.24517877 -0 0 84.13949646 -0 0 39.2486329 -0 0 0 -3.03953876 10.28988174 42.28881102 -0 0 79.82802843 -0 0 30.9274301 -0 0 0 1.4375263 -0.70216721 49.61463088 -0 0 32.62193964 -0 0 12.74294033 -0 0 0
-12.26848755 24.84792023 18.85260773 -107.1073881 83.45825523 133.12789086 -23.75870939 29.17153566 27.27777382 0.00000056 -42.78299114 0.00000142 0.00000005 -14.78988365 0.00000041 -0 0 -0 -8.27907654 9.36224505 -4.04550098 -0 0 -0.6948436 -0 0 -14.14480352 -0 0 0 -6.04683328 9.1514404 36.19052445 -0 0 84.13455415 -0 0 39.24741766 -0 0 0 -3.0463046 10.27336157 42.24652002 -0 0 79.81035443 -0 0 30.92204281 -0 0 0 1.42089049 -0.72050786 49.60182797 -0 0 32.60382079 -0 0 12.72482092 -0 0 0
-12.27225647 24.85009766 18.85138397 -107.17177698 83.45528287 133.17706789 -23.72748087 29.10968563 27.25160599 0.00000055 -42.68655627 0.00000142 0.00000005 -14.81083044 0.00000041 -0 -0 0 -8.29958191 9.33694258 -4.06081261 -0 0 -0.68521224 -0 0 -14.16088132 -0 0 0 -6.06308955 9.14013193 36.17936497 -0 0 84.13336922 -0 0 39.24706113 -0 0 0 -3.0588144 10.25560052 42.24667445 -0 0 79.79654493 -0 0 30.91724232 -0 0 0 1.40688347 -0.73709586 49.62455006 -0 0 32.59074206 -0 0 12.71174182 -0 0 0
-12.27469864 24.8590744 18.85059052 -107.17118974 83.44622691 133.17316277 -23.70270108 29.04541599 27.23162498 0.00000055 -42.58709566 0.00000141 0.00000005 -14.829644 0.00000041 0 0 0 -8.31658572 9.31326912 -4.08416439 -0 0 -0.67559688 -0 0 -14.17691761 -0 0 0 -6.07813349 9.13222912 36.16597739 -0 0 84.13112525 -0 0 39.24697154 -0 0 0 -3.07097599 10.24396664 42.24532467 -0 0 79.78040747 -0 0 30.90993301 -0 0 0 1.39290672 -0.74933022 49.64271092 -0 0 32.57702158 -0 0 12.69801885 -0 0 0
-12.27764053 24.86993256 18.85074768 -107.06407557 83.39777302 133.07325339 -23.66709409 28.98540144 27.21203912 0.00000055 -42.50717768 0.00000141 0.00000005 -14.8483068 0.00000041 -0 0 -0 -8.29825176 9.27000505 -4.11858682 -0 0 -0.66207446 -0 0 -14.18848248 -0 0 0 -6.05737246 9.10511327 36.14440442 -0 0 84.12914731 -0 0 39.24744248 -0 0 0 -3.04684043 10.21371118 42.23782093 -0 0 79.76335875 -0 0 30.903941 -0 0 0 1.41374322 -0.78080555 49.65694717 -0 0 32.56613644 -0 0 12.68713495 -0 0 0
-12.28018112 24.88551178 18.8508194 -106.92657647 83.34207985 132.95690442 -23.62308341 28.92823626 27.18637434 0.00000054 -42.43279579 0.0000014 0.00000005 -14.86137642 0.00000041 0 -0 0 -8.27092086 9.2272143 -4.15887633 -0 0 -0.64448093 -0 0 -14.19552932 -0 0 0 -6.02440772 9.07547485 36.11034405 -0 0 84.12941841 -0 0 39.24578984 -0 0 0 -3.00849828 10.17995577 42.21698082 -0 0 79.74742943 -0 0 30.89510709 -0 0 0 1.44632823 -0.81610997 49.65985347 -0 0 32.5526796 -0 0 12.67367541 -0 0 0
-12.28235703 24.89795685 18.85162506 -106.89238528 83.36071023 132.94202515 -23.59637201 28.86164064 27.16016072 0.00000054 -42.29015366 0.0000014 0.00000005 -14.87365142 0.00000041 0 0 -0 -8.3028907 9.22502622 -4.20458005 -0 0 -0.62589741 -0 0 -14.19976269 -0 0 0 -6.04695929 9.08726484 36.06785944 -0 0 84.12350389 -0 0 39.24269407 -0 0 0 -3.02925695 10.18629018 42.18619664 -0 0 79.70720604 -0 0 30.90184312 -0 0 0 1.42010632 -0.81248253 49.65569306 -0 0 32.53464244 -0 0 12.65563972 -0 0 0
-12.28636627 24.90575714 18.85195618 -106.88803124 83.36904331 132.93569234 -23.58421095 28.78887962 27.14097293 0.00000054 -42.15853924 0.00000139 0.00000005 -14.88477254 0.00000041 -0 -0 -0 -8.32687129 9.20910019 -4.23012067 -0 0 -0.60434545 -0 0 -14.20064376 -0 0 0 -6.06437386 9.0869064 36.04193975 -0 0 84.12125028 -0 0 39.24249743 -0 0 0 -3.04366894 10.18048171 42.17042332 -0 0 79.68897762 -0 0 30.89307392 -0 0 0 1.39906931 -0.81590172 49.66925737 -0 0 32.5182284 -0 0 12.63922816 -0 0 0
-12.29123077 24.88647461 18.84999237 -107.33130999 83.48878142 133.17140941 -23.67377826 28.6708739 27.2186992 0.00000053 -41.97547044 0.00000138 0.00000005 -14.89305385 0.00000041 -0 -0 0 -8.49749403 9.20655806 -4.04740483 -0 0 -0.58565802 -0 0 -14.20410534 -0 0 0 -6.22686205 9.10292374 36.21315642 -0 0 84.1166994 -0 0 39.23837113 -0 0 0 -3.20668173 10.19989555 42.35244222 -0 0 79.66639936 -0 0 30.88226825 -0 0 0 1.26973745 -0.77956102 49.87772608 -0 0 32.49867794 -0 0 12.61967499 -0 0 0
-12.29516296 24.86583099 18.84820404 -107.82138156 83.58873773 133.46809909 -23.80896422 28.53796055 27.33569621 0.00000052 -41.81387808 0.00000137 0.00000005 -14.90093786 0.00000041 0 -0 -0 -8.65174243 9.20388454 -3.90257813 -0 0 -0.57664151 -0 0 -14.21733237 -0 0 0 -6.37252013 9.10812425 36.34035861 -0 0 84.10415452 -0 0 39.2287705 -0 0 0 -3.35710018 10.20358918 42.49152859 -0 0 79.63621106 -0 0 30.86864884 -0 0 0 1.14368086 -0.75984112 50.05188911 -0 0 32.4731497 -0 0 12.59414602 -0 0 0
